<!DOCTYPE svg PUBLIC "-//W3C//DTD SVG 1.1//EN" "http://www.w3.org/Graphics/SVG/1.1/DTD/svg11.dtd">
<!-- Uploaded to: SVG Repo, www.svgrepo.com, Transformed by: SVG Repo Mixer Tools -->
<svg fill="#23b2e1" height="800px" width="800px" version="1.1" id="Layer_1" xmlns="http://www.w3.org/2000/svg" xmlns:xlink="http://www.w3.org/1999/xlink" viewBox="0 0 512 512" xml:space="preserve" stroke="#23b2e1" stroke-width="0.00512">
<g id="SVGRepo_bgCarrier" stroke-width="0"/>
<g id="SVGRepo_tracerCarrier" stroke-linecap="round" stroke-linejoin="round"/>
<g id="SVGRepo_iconCarrier"> <g> <g> <path d="M407.509,206.367h-96.653c-4.329,0-7.837,3.509-7.837,7.837c0,4.328,3.508,7.837,7.837,7.837h96.653 c4.329,0,7.837-3.509,7.837-7.837C415.346,209.876,411.838,206.367,407.509,206.367z"/> </g> </g> <g> <g> <path d="M407.509,253.388h-96.653c-4.329,0-7.837,3.509-7.837,7.837s3.508,7.837,7.837,7.837h96.653 c4.329,0,7.837-3.509,7.837-7.837C415.346,256.895,411.838,253.388,407.509,253.388z"/> </g> </g> <g> <g> <path d="M407.509,300.407h-96.653c-4.329,0-7.837,3.509-7.837,7.837c0,4.328,3.508,7.837,7.837,7.837h96.653 c4.329,0,7.837-3.509,7.837-7.837C415.346,303.916,411.838,300.407,407.509,300.407z"/> </g> </g> <g> <g> <path d="M254.693,206.367h-50.939c-4.329,0-7.837,3.509-7.837,7.837c0,4.328,3.508,7.837,7.837,7.837h50.939 c4.329,0,7.837-3.509,7.837-7.837C262.53,209.876,259.022,206.367,254.693,206.367z"/> </g> </g> <g> <g> <path d="M254.693,253.388h-50.939c-4.329,0-7.837,3.509-7.837,7.837s3.508,7.837,7.837,7.837h50.939 c4.329,0,7.837-3.509,7.837-7.837S259.022,253.388,254.693,253.388z"/> </g> </g> <g> <g> <path d="M254.693,300.407h-50.939c-4.329,0-7.837,3.509-7.837,7.837c0,4.328,3.508,7.837,7.837,7.837h50.939 c4.329,0,7.837-3.509,7.837-7.837C262.53,303.916,259.022,300.407,254.693,300.407z"/> </g> </g> <g> <g> <path d="M254.693,347.427h-50.939c-4.329,0-7.837,3.509-7.837,7.837c0,4.328,3.508,7.837,7.837,7.837h50.939 c4.329,0,7.837-3.509,7.837-7.837C262.53,350.936,259.022,347.427,254.693,347.427z"/> </g> </g> <g> <g> <path d="M407.509,154.122H203.754c-4.329,0-7.837,3.509-7.837,7.837c0,4.328,3.508,7.837,7.837,7.837h203.755 c4.329,0,7.837-3.509,7.837-7.837C415.346,157.631,411.838,154.122,407.509,154.122z"/> </g> </g> <g> <g> <path d="M407.509,396.539H203.754c-4.329,0-7.837,3.509-7.837,7.837c0,4.328,3.508,7.837,7.837,7.837h203.755 c4.329,0,7.837-3.509,7.837-7.837C415.346,400.048,411.838,396.539,407.509,396.539z"/> </g> </g> <g> <g> <path d="M254.693,436.245h-50.939c-4.329,0-7.837,3.509-7.837,7.837c0,4.328,3.508,7.837,7.837,7.837h50.939 c4.329,0,7.837-3.509,7.837-7.837C262.53,439.754,259.022,436.245,254.693,436.245z"/> </g> </g> <g> <g> <path d="M307.424,46.498c-32.493,0-57.946,18.258-57.946,41.565c0,23.309,25.453,41.567,57.946,41.567 c32.492,0.001,57.946-18.259,57.946-41.567C365.369,64.755,339.917,46.498,307.424,46.498z M307.424,113.957 c-22.915,0.001-42.272-11.858-42.272-25.894c0-14.035,19.358-25.892,42.272-25.892c22.915,0,42.272,11.857,42.272,25.892 C349.696,102.099,330.338,113.957,307.424,113.957z"/> </g> </g> <g> <g> <path d="M467.084,445.649c-4.329,0-7.837,3.509-7.837,7.837v34.871c0,4.395-3.713,7.969-8.276,7.969H156.097 c-4.564,0-8.278-3.576-8.278-7.969V54.466c0-15.169-6.335-28.908-16.54-38.793h288.271c21.888,0,39.696,17.403,39.696,38.793 v367.672c0,4.328,3.508,7.837,7.837,7.837c4.329,0,7.837-3.509,7.837-7.837V54.466C474.92,24.434,450.08,0,419.55,0H92.45 C61.919,0,37.079,24.434,37.079,54.466v17.632c0,4.328,3.508,7.837,7.837,7.837c4.329,0,7.837-3.509,7.837-7.837V54.466 C52.752,33.076,70.56,15.673,92.45,15.673c21.888,0,39.696,17.403,39.696,38.793v168.626c-0.484,0.399-0.924,0.857-1.304,1.372 c-2.302,3.109-5.818,4.891-9.649,4.891c-3.229,0-6.26-1.266-8.537-3.566c-1.471-1.487-3.477-2.324-5.569-2.324 c-2.092,0-4.098,0.837-5.569,2.324c-2.277,2.3-5.308,3.566-8.537,3.566c-2.251,0-4.399-0.628-6.269-1.78v-42.51 c0-4.328-3.508-7.837-7.837-7.837c-4.328,0-7.837,3.509-7.837,7.837v42.51c-1.87,1.152-4.019,1.78-6.269,1.78 c-6.626,0-12.016-5.391-12.016-12.016V108.669c0-4.328-3.508-7.837-7.837-7.837c-4.329,0-7.837,3.509-7.837,7.837v108.669 c0,15.268,12.422,27.69,27.69,27.69c5.046,0,9.882-1.34,14.106-3.852c4.224,2.512,9.06,3.852,14.106,3.852 c5.046,0,9.882-1.34,14.106-3.852c4.225,2.512,9.06,3.852,14.106,3.852c3.804,0,7.527-0.807,10.954-2.295v245.623 c0,13.037,10.745,23.643,23.951,23.643h294.873c13.205,0,23.949-10.606,23.949-23.643v-34.871 C474.921,449.158,471.413,445.649,467.084,445.649z"/> </g> </g> </g>
</svg>