<?xml version="1.0" encoding="iso-8859-1"?>
<!-- Uploaded to: SVG Repo, www.svgrepo.com, Generator: SVG Repo Mixer Tools -->
<svg version="1.1" id="Layer_1" xmlns="http://www.w3.org/2000/svg" xmlns:xlink="http://www.w3.org/1999/xlink" 
	 viewBox="0 0 511.991 511.991" xml:space="preserve">
<path style="fill:#ED5564;" d="M330.663,64.005h-74.67c-5.891,0-10.664-4.773-10.664-10.664s4.773-10.672,10.664-10.672h74.67
	c5.891,0,10.671,4.781,10.671,10.672S336.554,64.005,330.663,64.005z"/>
<path style="fill:#DA4453;" d="M383.989,85.341h-74.654c-5.891,0-10.672-4.781-10.672-10.672c0-5.89,4.781-10.664,10.672-10.664
	h74.654c5.891,0,10.672,4.773,10.672,10.664C394.661,80.559,389.88,85.341,383.989,85.341z"/>
<path style="fill:#CCD1D9;" d="M255.993,106.668c-5.891,0-10.664-4.773-10.664-10.664V32.006c0-5.89,4.773-10.664,10.664-10.664
	s10.664,4.773,10.664,10.664v63.998C266.657,101.895,261.884,106.668,255.993,106.668z"/>
<path style="fill:#FFCE54;" d="M479.986,490.649H32c-5.891,0-10.664-4.766-10.664-10.656V330.654
	c0-5.875,4.773-10.656,10.664-10.656h447.986c5.891,0,10.671,4.781,10.671,10.656v149.339
	C490.657,485.884,485.877,490.649,479.986,490.649z"/>
<g>
	<rect x="48.772" y="373.336" style="fill:#5D9CEC;" width="82.66" height="82.65"/>
	<rect x="374.665" y="374.656" style="fill:#5D9CEC;" width="82.67" height="82.69"/>
</g>
<path style="fill:#434A54;" d="M255.993,235.664c-5.891,0-10.664-4.773-10.664-10.664v-27.664c0-5.89,4.773-10.671,10.664-10.671
	s10.664,4.781,10.664,10.671V225C266.657,230.891,261.884,235.664,255.993,235.664z"/>
<path style="fill:#FFCE54;" d="M255.993,133.339c-14.703,0-26.663,11.96-26.663,26.664v15.999c0,5.891,4.773,10.664,10.663,10.664
	h31.999c5.891,0,10.672-4.773,10.672-10.664v-15.999C282.664,145.3,270.695,133.339,255.993,133.339z"/>
<g>
	<path style="fill:#CCD1D9;" d="M458.659,426.651h-85.326c-5.891,0-10.672-4.766-10.672-10.656s4.781-10.655,10.672-10.655h85.326
		c5.891,0,10.672,4.766,10.672,10.655C469.331,421.886,464.55,426.651,458.659,426.651z"/>
	<path style="fill:#CCD1D9;" d="M415.988,469.338c-5.891,0-10.656-4.781-10.656-10.688v-85.311c0-5.906,4.766-10.688,10.656-10.688
		s10.671,4.781,10.671,10.688v85.311C426.659,464.557,421.878,469.338,415.988,469.338z"/>
	<path style="fill:#CCD1D9;" d="M138.66,426.651H53.335c-5.891,0-10.672-4.766-10.672-10.656s4.781-10.655,10.672-10.655h85.325
		c5.891,0,10.672,4.766,10.672,10.655C149.332,421.886,144.551,426.651,138.66,426.651z"/>
	<path style="fill:#CCD1D9;" d="M95.998,469.338c-5.891,0-10.664-4.781-10.664-10.688v-85.311c0-5.906,4.773-10.688,10.664-10.688
		c5.89,0,10.663,4.781,10.663,10.688v85.311C106.661,464.557,101.888,469.338,95.998,469.338z"/>
</g>
<path style="fill:#ED5564;" d="M511.735,328.342l-21.328-95.99c-1.094-4.882-5.421-8.351-10.421-8.351H32
	c-5,0-9.328,3.469-10.414,8.351L0.25,328.342c-0.694,3.156,0.07,6.469,2.094,9c2.023,2.53,5.086,3.999,8.32,3.999h490.665
	c3.234,0,6.281-1.469,8.312-3.999C511.673,334.81,512.438,331.498,511.735,328.342z"/>
<path style="fill:#CCD1D9;" d="M298.663,319.998H213.33c-5.891,0-10.672-4.781-10.672-10.656V117.34
	c0-4.039,2.281-7.734,5.898-9.547l42.663-21.327c3.008-1.5,6.539-1.5,9.547,0l42.662,21.327c3.609,1.812,5.906,5.508,5.906,9.547
	v192.002C309.335,315.217,304.554,319.998,298.663,319.998z M223.994,298.654h63.997V123.926l-31.998-16l-31.999,16V298.654z"/>
<path style="fill:#434A54;" d="M314.1,113.129l-53.334-26.663c-3.008-1.5-6.539-1.5-9.547,0l-53.326,26.663
	c-4.43,2.211-6.75,7.18-5.617,11.992c1.141,4.812,5.438,8.218,10.382,8.218h106.677c4.938,0,9.234-3.406,10.375-8.218
	C320.85,120.308,318.522,115.34,314.1,113.129z"/>
<rect x="213.335" y="203.296" style="fill:#CCD1D9;" width="85.33" height="106.04"/>
<g>
	<path style="fill:#DA4453;" d="M458.659,277.343H341.334c-5.89,0-10.671-4.781-10.671-10.679c0-5.891,4.781-10.664,10.671-10.664
		h117.325c5.891,0,10.672,4.773,10.672,10.664C469.331,272.561,464.55,277.343,458.659,277.343z"/>
	<path style="fill:#DA4453;" d="M469.331,309.342H351.99c-5.891,0-10.656-4.781-10.656-10.688c0-5.874,4.766-10.655,10.656-10.655
		h117.341c5.89,0,10.655,4.781,10.655,10.655C479.986,304.56,475.221,309.342,469.331,309.342z"/>
	<path style="fill:#DA4453;" d="M170.659,277.343H53.335c-5.891,0-10.672-4.781-10.672-10.679c0-5.891,4.781-10.664,10.672-10.664
		h117.324c5.891,0,10.672,4.773,10.672,10.664C181.331,272.561,176.55,277.343,170.659,277.343z"/>
	<path style="fill:#DA4453;" d="M159.996,309.342H42.663c-5.891,0-10.663-4.781-10.663-10.688c0-5.874,4.772-10.655,10.663-10.655
		h117.333c5.891,0,10.663,4.781,10.663,10.655C170.659,304.56,165.887,309.342,159.996,309.342z"/>
</g>
<path style="fill:#E6E9ED;" d="M337.599,322.56l-74.739-63.998c-4-3.422-9.891-3.414-13.883,0.008l-74.592,63.99
	c-2.367,2.031-3.727,5-3.727,8.094v149.339c0,5.891,4.781,10.656,10.672,10.656h149.332c5.891,0,10.671-4.766,10.671-10.656V330.654
	C341.334,327.56,339.959,324.592,337.599,322.56z"/>
<path style="fill:#ED5564;" d="M287.991,405.34h-64.138c-5.891,0-10.672,4.766-10.672,10.655v74.654h85.481v-74.654
	C298.663,410.105,293.882,405.34,287.991,405.34z"/>
<rect x="245.255" y="405.336" style="fill:#DA4453;" width="21.336" height="85.31"/>
<g>
	<path style="fill:#E6E9ED;" d="M458.659,469.338h-85.326c-5.891,0-10.672-4.781-10.672-10.688v-85.311
		c0-5.906,4.781-10.688,10.672-10.688h85.326c5.891,0,10.672,4.781,10.672,10.688v85.311
		C469.331,464.557,464.55,469.338,458.659,469.338z M383.989,447.994h63.998v-63.998H383.99L383.989,447.994L383.989,447.994z"/>
	<path style="fill:#E6E9ED;" d="M138.66,469.338H53.335c-5.891,0-10.672-4.781-10.672-10.688v-85.311
		c0-5.906,4.781-10.688,10.672-10.688h85.325c5.891,0,10.672,4.781,10.672,10.688v85.311
		C149.332,464.557,144.551,469.338,138.66,469.338z M63.999,447.994h63.998v-63.998H63.999V447.994z"/>
</g>
<rect x="237.435" y="324.656" style="fill:#5D9CEC;" width="33.999" height="32.687"/>
<path style="fill:#CCD1D9;" d="M255.993,373.34c-17.648,0-31.999-14.374-31.999-31.999c0-17.655,14.351-31.999,31.999-31.999
	c17.655,0,31.998,14.344,31.998,31.999C287.991,358.966,273.648,373.34,255.993,373.34z M255.993,330.654
	c-5.883,0-10.664,4.797-10.664,10.687c0,5.875,4.781,10.656,10.664,10.656c5.883,0,10.664-4.781,10.664-10.656
	C266.657,335.451,261.876,330.654,255.993,330.654z"/>
</svg>