<?xml version="1.0" encoding="iso-8859-1"?>
<!-- Uploaded to: SVG Repo, www.svgrepo.com, Generator: SVG Repo Mixer Tools -->
<!DOCTYPE svg PUBLIC "-//W3C//DTD SVG 1.1//EN" "http://www.w3.org/Graphics/SVG/1.1/DTD/svg11.dtd">
<svg fill="#000000" height="800px" width="800px" version="1.1" id="Capa_1" xmlns="http://www.w3.org/2000/svg" xmlns:xlink="http://www.w3.org/1999/xlink" 
	 viewBox="0 0 342.529 342.529" xml:space="preserve">
<g>
	<g>
		<path d="M121.195,91.587c-0.523-0.369-1.055-0.723-1.592-1.066c5.592-5.475,9.07-13.1,9.07-21.525
			c0-2.514-0.314-4.957-0.896-7.293l21.73-13.221c2.139-1.301,3.486-3.582,3.596-6.082c0.107-2.5-1.037-4.891-3.055-6.371
			L103.009,1.488c-2.574-1.922-6.197-2.033-8.922-0.033L47.003,36.029c-2.017,1.48-3.162,3.871-3.054,6.371
			c0.108,2.5,1.457,4.781,3.595,6.082l21.732,13.221c-0.583,2.336-0.897,4.779-0.897,7.293c0,8.426,3.479,16.051,9.07,21.525
			c-0.533,0.344-1.062,0.693-1.583,1.061c-6.892,4.4-46.636,33.035-48.077,108.654c-0.043,2.268,0.942,4.434,2.68,5.891
			l21.243,17.812v85.182c0,4.142,3.357,7.5,7.5,7.5h4.149c-1.939,5.18-3.034,11.449-3.034,18.408c0,4.143,3.357,7.5,7.5,7.5h61.399
			c4.143,0,7.5-3.357,7.5-7.5c0-6.961-1.1-13.227-3.039-18.408h4.154c4.143,0,7.5-3.358,7.5-7.5v-85.182l21.242-17.812
			c1.738-1.457,2.723-3.623,2.68-5.891C167.824,124.646,128.109,96.005,121.195,91.587z M51.712,204.363l-8.825-7.4
			c0.728-19.463,4.281-35.186,8.825-47.615V204.363z M64.911,41.49l33.616-24.685l33.615,24.685l-11.531,7.014
			c-5.51-5.932-13.369-9.654-22.086-9.654c-8.715,0-16.574,3.723-22.083,9.654L64.911,41.49z M113.673,68.996
			c0,8.352-6.795,15.145-15.148,15.145c-8.351,0-15.146-6.793-15.146-15.145c0-8.352,6.795-15.146,15.146-15.146
			C106.878,53.849,113.673,60.644,113.673,68.996z M75.957,327.529c1.131-6.4,3.496-10.182,4.706-10.908h5.028
			c1.21,0.726,3.575,4.508,4.706,10.908H75.957z M91.026,301.621H66.712V143.501c0-14.141,4.773-26.752,12.188-34.879l12.126,18.42
			V301.621z M98.527,111.158l-7.154-10.867c2.3-0.744,4.693-1.15,7.154-1.15c2.461,0,4.854,0.406,7.154,1.15L98.527,111.158z
			 M106.658,327.529c1.131-6.4,3.496-10.182,4.705-10.908h5.029c1.209,0.726,3.574,4.51,4.703,10.908H106.658z M130.341,301.621
			h-24.314V127.044l12.119-18.412c7.416,8.127,12.195,20.729,12.195,34.869V301.621z M145.341,204.363v-55.131
			c4.643,12.654,8.107,28.389,8.824,47.73L145.341,204.363z"/>
		<g>
			<path d="M266.672,91.587c-0.523-0.369-1.057-0.723-1.592-1.066c5.592-5.475,9.07-13.1,9.07-21.525
				c0-2.514-0.314-4.957-0.898-7.293l21.732-13.221c2.137-1.301,3.486-3.582,3.594-6.082c0.109-2.5-1.037-4.891-3.053-6.371
				L248.486,1.488c-2.574-1.922-6.199-2.033-8.924-0.033l-47.084,34.574c-2.016,1.48-3.162,3.871-3.053,6.371
				c0.108,2.5,1.457,4.781,3.594,6.082l21.732,13.221c-0.582,2.336-0.896,4.779-0.896,7.293c0,8.426,3.479,16.051,9.07,21.525
				c-0.533,0.344-1.063,0.693-1.584,1.061c-6.891,4.4-46.635,33.035-48.076,108.654c-0.043,2.268,0.941,4.434,2.68,5.891
				l21.242,17.812v85.182c0,4.142,3.357,7.5,7.5,7.5h4.15c-1.939,5.18-3.035,11.449-3.035,18.408c0,4.143,3.357,7.5,7.5,7.5h61.398
				c4.143,0,7.5-3.357,7.5-7.5c0-6.961-1.098-13.227-3.039-18.408h4.154c4.143,0,7.5-3.358,7.5-7.5v-85.182l21.244-17.812
				c1.736-1.457,2.723-3.623,2.68-5.891C313.301,124.646,273.586,96.005,266.672,91.587z M197.187,204.363l-8.824-7.4
				c0.727-19.463,4.281-35.186,8.824-47.615V204.363z M210.387,41.49l33.615-24.685l33.615,24.685l-11.529,7.014
				c-5.51-5.932-13.371-9.654-22.086-9.654c-8.717,0-16.574,3.723-22.084,9.654L210.387,41.49z M259.15,68.996
				c0,8.352-6.797,15.145-15.148,15.145c-8.352,0-15.146-6.793-15.146-15.145c0-8.352,6.795-15.146,15.146-15.146
				C252.353,53.849,259.15,60.644,259.15,68.996z M221.433,327.529c1.131-6.4,3.496-10.182,4.705-10.908h5.029
				c1.209,0.726,3.574,4.508,4.705,10.908H221.433z M236.502,301.621h-24.314V143.501c0-14.141,4.773-26.752,12.189-34.879
				l12.125,18.42V301.621z M244.004,111.158l-7.154-10.867c2.301-0.744,4.693-1.15,7.154-1.15c2.461,0,4.852,0.406,7.152,1.15
				L244.004,111.158z M252.133,327.529c1.131-6.4,3.496-10.182,4.707-10.908h5.027c1.209,0.726,3.574,4.51,4.705,10.908H252.133z
				 M275.816,301.621h-24.314V127.044l12.121-18.412c7.416,8.127,12.193,20.729,12.193,34.869V301.621z M290.816,204.363v-55.131
				c4.645,12.654,8.109,28.389,8.826,47.73L290.816,204.363z"/>
		</g>
	</g>
</g>
</svg>