<?xml version="1.0" standalone="no"?>
<!DOCTYPE svg PUBLIC "-//W3C//DTD SVG 20010904//EN"
 "http://www.w3.org/TR/2001/REC-SVG-20010904/DTD/svg10.dtd">
<svg version="1.0" xmlns="http://www.w3.org/2000/svg"
 width="512.000000pt" height="512.000000pt" viewBox="0 0 512.000000 512.000000"
 preserveAspectRatio="xMidYMid meet">

<g transform="translate(0.000000,512.000000) scale(0.100000,-0.100000)"
fill="#000000" stroke="none">
<path d="M0 2570 l0 -2550 2560 0 2560 0 0 2550 0 2550 -2560 0 -2560 0 0
-2550z m2084 1287 c33 -43 100 -180 126 -256 51 -154 68 -367 41 -521 -27
-152 -102 -337 -178 -436 -12 -17 -23 -36 -23 -43 0 -7 138 -158 308 -337 169
-179 310 -334 314 -345 4 -10 3 -30 -2 -43 -10 -29 -695 -675 -727 -687 -36
-13 -65 4 -112 65 -240 318 -276 761 -92 1128 l49 98 -284 362 c-156 200 -287
373 -290 386 -4 13 -2 34 4 47 6 13 181 156 389 319 338 264 382 295 415 296
30 0 42 -6 62 -33z m1253 11 c18 -15 109 -204 133 -276 25 -76 50 -234 50
-317 0 -209 -64 -427 -176 -596 -27 -41 -51 -77 -52 -82 -2 -4 103 -119 235
-255 384 -399 373 -386 373 -420 0 -27 -40 -70 -346 -364 -190 -183 -357 -339
-370 -346 -41 -22 -70 -5 -130 77 -241 328 -271 782 -77 1142 l36 66 -258 343
c-307 409 -301 400 -283 437 8 17 142 125 363 291 428 322 433 325 465 317 14
-4 30 -11 37 -17z"/>
</g>
</svg>
